<svg width="36" height="36" viewBox="0 0 36 36" fill="none" xmlns="http://www.w3.org/2000/svg">
<g id="Group 13">
<path id="Ellipse 11" d="M13.1375 35.1693C8.94272 34.3098 5.2634 31.8299 2.90894 28.2752C0.554481 24.7204 -0.282246 20.382 0.58283 16.2144C1.44791 12.0467 3.94392 8.39115 7.52178 6.05191C11.0996 3.71267 15.4663 2.88135 19.6611 3.74083L16.3993 19.455L13.1375 35.1693Z" fill="#5584CE"/>
<path id="Ellipse 12" d="M22.5994 0.43642C26.8011 1.26151 30.5009 3.71117 32.8848 7.24649C35.2687 10.7818 36.1414 15.1132 35.3109 19.2878C34.4805 23.4624 32.0149 27.1383 28.4565 29.5068C24.8982 31.8752 20.5386 32.7423 16.3369 31.9172L19.4681 16.1768L22.5994 0.43642Z" fill="#ED3237"/>
</g>
</svg>
