<svg width="24" height="24" viewBox="0 0 24 24" fill="none" xmlns="http://www.w3.org/2000/svg">
<g id="Staff">
<path id="Vector" d="M21.9007 16.3792V18.0592H3V16.2813C2.99907 15.9058 3.16594 15.5495 3.45508 15.3098C4.47494 14.4868 5.57195 13.7642 6.73056 13.1518C6.80543 13.3266 7.5312 14.9951 7.99392 15.6997V15.6996C8.00035 15.7128 8.01375 15.7212 8.02848 15.7212C8.04321 15.7212 8.0566 15.7128 8.06303 15.6996C8.15705 15.4174 8.51999 14.4381 9.07096 14.5053H9.0711C9.08837 14.5105 9.10686 14.5022 9.11449 14.4859C9.12212 14.4697 9.11676 14.4501 9.10176 14.4401C8.68512 14.1079 7.62909 13.2535 7.22784 12.7774V11.6273C7.04918 11.3236 6.92744 10.9898 6.86877 10.6423C6.73056 10.6308 6.55002 10.4387 6.35421 9.74953C6.10269 8.86252 6.33881 8.68588 6.56729 8.68773C6.44635 8.1693 6.13913 6.36837 7.47936 5.55045C7.31824 5.41438 7.22489 5.21429 7.22396 5.00336C7.22396 5.00336 8.75999 5.17613 9.49151 5.02452C10.223 4.87278 11.0275 5.45268 11.1523 6.01143C11.1523 6.01143 12.6518 6.01143 12.0702 8.68987C12.3044 8.68022 12.5598 8.84161 12.3005 9.75166C12.1085 10.441 11.9166 10.6349 11.786 10.6444V10.6443C11.7276 10.9918 11.6058 11.3256 11.4269 11.6292V12.7698C11.0236 13.2459 9.96962 14.1022 9.55109 14.4325C9.53609 14.4425 9.5306 14.462 9.53837 14.4783C9.546 14.4946 9.56449 14.5029 9.58176 14.4977C10.1327 14.4305 10.4957 15.4078 10.5897 15.6919C10.5961 15.7052 10.6096 15.7136 10.6242 15.7136C10.639 15.7136 10.6525 15.7052 10.6589 15.6919C11.1217 14.9873 11.8474 13.3189 11.9223 13.1441C12.702 13.5594 13.4555 14.0223 14.1782 14.5304C14.4217 14.4493 14.659 14.3512 14.8887 14.2366L14.9309 14.2117C15.0507 14.1341 15.1229 14.0011 15.1229 13.8584V13.1422C13.2279 13.1595 12.6692 12.3473 12.6692 12.3473C12.6692 12.3473 13.7522 12.3301 13.685 9.46735C13.6176 6.60463 14.9251 6.14191 15.4167 5.96335C16.847 5.41999 17.5651 6.28397 17.5651 6.28397C19.224 6.13036 19.6772 7.94282 19.4851 10.005C19.2931 12.0671 20.4145 12.3896 20.4145 12.3896C19.6369 13.1845 17.9953 13.1345 17.9953 13.1345V13.8738H17.9952C17.9952 14.0166 18.0673 14.1496 18.1872 14.2271L18.2372 14.2578C18.8132 14.5593 19.9959 14.8723 20.019 14.8838C20.406 14.9888 20.7822 15.1309 21.1421 15.3081C21.564 15.5091 21.8511 15.9147 21.9005 16.3794L21.9007 16.3792Z" fill="#272525"/>
</g>
</svg>
